<svg width="34" height="28" viewBox="0 0 34 28" fill="none" xmlns="http://www.w3.org/2000/svg">
<path d="M2 14C2 10.1172 2 8.17573 2.63434 6.6443C3.48012 4.6024 5.1024 2.98012 7.1443 2.13434C8.67573 1.5 10.6172 1.5 14.5 1.5H19.5C23.3828 1.5 25.3243 1.5 26.8557 2.13434C28.8976 2.98012 30.5199 4.6024 31.3657 6.6443C32 8.17573 32 10.1172 32 14V14C32 17.8828 32 19.8243 31.3657 21.3557C30.5199 23.3976 28.8976 25.0199 26.8557 25.8657C25.3243 26.5 23.3828 26.5 19.5 26.5H14.5C10.6172 26.5 8.67573 26.5 7.1443 25.8657C5.1024 25.0199 3.48012 23.3976 2.63434 21.3557C2 19.8243 2 17.8828 2 14V14Z" stroke="white" stroke-width="2.5" stroke-linejoin="round"/>
<path d="M2 7.33301L7.79143 11.8372C11.7075 14.8829 13.6655 16.4057 15.9021 16.7031C16.6313 16.8001 17.37 16.8001 18.0992 16.7031C20.3358 16.4056 22.2937 14.8827 26.2096 11.8368L32 7.33301" stroke="white" stroke-width="2.5" stroke-linejoin="round"/>
</svg>
