<svg width="16" height="16" viewBox="0 0 16 16" fill="none" xmlns="http://www.w3.org/2000/svg">
<path d="M2.01884 2.0537L1.62117 1.65588L2.01884 2.0537ZM5.73115 2.0537L6.12882 1.65588L5.73115 2.0537ZM5.73115 5.76456L5.33348 5.36674L5.73115 5.76456ZM10.239 10.2706L9.84129 9.87278L10.239 10.2706ZM13.9513 13.9815L13.5536 13.5836L13.9513 13.9815ZM4.67049 11.3309L4.27282 11.7287L4.67049 11.3309ZM1.2639 4.17962L1.82639 4.17642C1.82629 4.15823 1.8253 4.14005 1.82344 4.12195L1.2639 4.17962ZM11.8245 14.7361L11.8821 14.1766C11.8641 14.1747 11.8459 14.1737 11.8277 14.1736L11.8245 14.7361ZM4.29169 6.50003L4.2029 5.94458C4.02296 5.97334 3.86811 6.08749 3.78739 6.25086C3.70667 6.41424 3.7101 6.60659 3.79658 6.76698L4.29169 6.50003ZM9.50321 11.7095L9.23641 12.2047C9.3968 12.2911 9.5891 12.2945 9.75242 12.2138C9.91574 12.1331 10.0299 11.9783 10.0586 11.7984L9.50321 11.7095ZM2.41651 2.45153C3.22199 1.64637 4.52801 1.64637 5.33348 2.45153L6.12882 1.65588C4.88405 0.411583 2.86595 0.411583 1.62117 1.65588L2.41651 2.45153ZM5.33348 2.45153C6.13884 3.25656 6.13884 4.5617 5.33348 5.36674L6.12882 6.16239C7.37372 4.91797 7.37372 2.90029 6.12882 1.65588L5.33348 2.45153ZM10.6366 10.6684C11.4421 9.86327 12.7481 9.86327 13.5536 10.6684L14.3489 9.87278C13.1042 8.62849 11.0861 8.62849 9.84129 9.87278L10.6366 10.6684ZM13.5536 10.6684C14.359 11.4735 14.359 12.7786 13.5536 13.5836L14.3489 14.3793C15.5938 13.1349 15.5938 11.1172 14.3489 9.87278L13.5536 10.6684ZM5.06816 10.933C2.94878 8.81447 1.83826 6.26861 1.82639 4.17642L0.701408 4.18281C0.715332 6.63598 1.99469 9.45143 4.27282 11.7287L5.06816 10.933ZM1.82344 4.12195C1.76187 3.52465 1.95983 2.90803 2.41651 2.45153L1.62117 1.65588C0.914898 2.36188 0.60956 3.31747 0.704363 4.23729L1.82344 4.12195ZM13.5536 13.5836C13.0969 14.0402 12.4799 14.2381 11.8821 14.1766L11.7669 15.2957C12.6869 15.3904 13.6427 15.0853 14.3489 14.3793L13.5536 13.5836ZM11.8277 14.1736C9.73449 14.1618 7.18753 13.0516 5.06816 10.933L4.27282 11.7287C6.55098 14.0059 9.36742 15.2847 11.8213 15.2986L11.8277 14.1736ZM5.33348 5.36674C5.01383 5.68627 4.61685 5.87841 4.2029 5.94458L4.38049 7.05548C5.02053 6.95316 5.63603 6.65499 6.12882 6.16239L5.33348 5.36674ZM6.92432 9.0776C6.03336 8.18698 5.31713 7.21665 4.78681 6.23307L3.79658 6.76698C4.38038 7.84974 5.16306 8.90771 6.12898 9.87325L6.92432 9.0776ZM10.0586 11.7984C10.1248 11.3847 10.317 10.988 10.6366 10.6684L9.84129 9.87278C9.34849 10.3654 9.05015 10.9807 8.94777 11.6206L10.0586 11.7984ZM9.77 11.2143C8.78601 10.6842 7.81528 9.96821 6.92432 9.0776L6.12898 9.87325C7.09489 10.8388 8.15326 11.6212 9.23641 12.2047L9.77 11.2143Z" fill="white"/>
</svg>
