<svg width="70" height="70" viewBox="0 0 70 70" fill="none" xmlns="http://www.w3.org/2000/svg">
<g clip-path="url(#clip0_166_122)">
<mask id="mask0_166_122" style="mask-type:luminance" maskUnits="userSpaceOnUse" x="0" y="0" width="70" height="70">
<path d="M70 0H0V70H70V0Z" fill="white"/>
</mask>
<g mask="url(#mask0_166_122)">
<mask id="mask1_166_122" style="mask-type:luminance" maskUnits="userSpaceOnUse" x="0" y="0" width="70" height="70">
<path d="M70 0H0V70H70V0Z" fill="white"/>
</mask>
<g mask="url(#mask1_166_122)">
<mask id="mask2_166_122" style="mask-type:luminance" maskUnits="userSpaceOnUse" x="0" y="0" width="70" height="70">
<path d="M70 0H0V70H70V0Z" fill="white"/>
</mask>
<g mask="url(#mask2_166_122)">
<mask id="mask3_166_122" style="mask-type:luminance" maskUnits="userSpaceOnUse" x="0" y="0" width="70" height="70">
<path d="M70 0H0V70H70V0Z" fill="white"/>
</mask>
<g mask="url(#mask3_166_122)">
<path fill-rule="evenodd" clip-rule="evenodd" d="M28.0002 5.25C28.0002 2.35051 30.3507 0 33.2502 0H36.7502C39.6497 0 42.0002 2.35051 42.0002 5.25V6.52558C42.0002 7.32407 42.5426 8.01574 43.3053 8.25228C44.9537 8.76355 46.5369 9.42299 48.0393 10.215C48.7458 10.5875 49.6185 10.482 50.1833 9.91724L51.0867 9.01383C53.1369 6.96357 56.4611 6.96357 58.5113 9.01383L60.9862 11.4887C63.0364 13.539 63.0364 16.8631 60.9862 18.9133L60.0828 19.8167C59.518 20.3815 59.4125 21.2542 59.785 21.9607C60.577 23.4632 61.2365 25.0465 61.7478 26.6949C61.9843 27.4576 62.676 28 63.4745 28H64.75C67.6495 28 70 30.3505 70 33.25V36.75C70 39.6495 67.6495 42 64.75 42H63.4745C62.676 42 61.9843 42.5424 61.7478 43.3051C61.2365 44.9535 60.577 46.5368 59.785 48.0393C59.4125 48.7458 59.518 49.6185 60.0828 50.1833L60.9862 51.0867C63.0364 53.1369 63.0364 56.4611 60.9862 58.5113L58.5113 60.9862C56.461 63.0364 53.1369 63.0364 51.0867 60.9862L50.1833 60.0828C49.6185 59.518 48.7458 59.4125 48.0393 59.785C46.5368 60.577 44.9537 61.2365 43.3053 61.7477C42.5426 61.9843 42.0002 62.6759 42.0002 63.4744V64.75C42.0002 67.6495 39.6497 70 36.7502 70H33.2502C30.3507 70 28.0002 67.6495 28.0002 64.75V63.4746C28.0002 62.6761 27.4578 61.9844 26.6952 61.7479C25.0466 61.2366 23.4633 60.5771 21.9607 59.785C21.2542 59.4125 20.3815 59.518 19.8167 60.0828L18.9133 60.9862C16.8631 63.0364 13.539 63.0364 11.4887 60.9862L9.01383 58.5113C6.96357 56.461 6.96357 53.1369 9.01383 51.0867L9.91724 50.1833C10.482 49.6185 10.5875 48.7458 10.215 48.0393C9.42296 46.5368 8.76349 44.9535 8.25221 43.3051C8.01567 42.5424 7.324 42 6.52551 42H5.25C2.3505 42 0 39.6495 0 36.75V33.25C0 30.3505 2.35051 28 5.25 28H6.52551C7.324 28 8.01567 27.4576 8.25221 26.6949C8.76349 25.0465 9.42296 23.4632 10.215 21.9607C10.5875 21.2542 10.482 20.3815 9.91724 19.8167L9.01383 18.9133C6.96357 16.8631 6.96357 13.539 9.01383 11.4887L11.4887 9.01383C13.539 6.96357 16.8631 6.96357 18.9133 9.01383L19.8167 9.91724C20.3815 10.482 21.2542 10.5875 21.9607 10.215C23.4633 9.42292 25.0466 8.76343 26.6952 8.25214C27.4578 8.01561 28.0002 7.32394 28.0002 6.52543V5.25Z" fill="#fd3600"/>
<path d="M45 35C45 40.5228 40.5228 45 35 45C29.4772 45 25 40.5228 25 35C25 29.4772 29.4772 25 35 25C40.5228 25 45 29.4772 45 35Z" fill="white"/>
</g>
</g>
</g>
</g>
</g>
<defs>
<clipPath id="clip0_166_122">
<rect width="70" height="70" fill="white"/>
</clipPath>
</defs>
</svg>
