<svg width="197" height="38" viewBox="0 0 197 38" fill="none" xmlns="http://www.w3.org/2000/svg">
<path d="M2.47759 29.5418C7.80278 32.2289 15.1433 34.3099 20.362 35.5879C27.074 37.2741 34.1611 36.6091 40.4422 33.7037C42.9243 32.3268 45.6405 31.1994 45.8738 28.2637C45.9849 25.5411 43.8214 24.1969 41.5973 22.7338C41.2771 24.8451 40.2555 26.7872 38.6971 28.2473C38.7237 28.6754 38.5899 29.098 38.3218 29.4328C38.0537 29.7675 37.6705 29.9904 37.247 30.058C33.9268 31.0662 30.2386 31.6158 26.8095 30.8362C19.0569 31.1292 5.17872 29.2301 2.31384 22.152C1.34036 23.0022 0.0160274 24.142 0.0116444 25.4864C-0.193201 28.0097 2.37108 29.4844 2.47759 29.5418Z" fill="#202020"/>
<path d="M36.1003 20.0055C36.2916 21.8109 36.7489 26.1293 36.9851 28.3538C34.0225 29.3027 30.898 29.6399 27.8012 29.3451C27.8324 25.0726 27.4565 20.8068 26.6788 16.6056C25.508 10.9282 20.9399 5.32387 15.5615 2.57168C18.2882 1.5926 21.2091 1.27805 24.0818 1.65412C27.2569 3.70262 29.967 6.39429 32.0372 9.55528C34.1073 12.7163 35.4915 16.2763 36.1003 20.0055ZM13.374 3.48105C12.2165 4.05924 11.1396 4.78636 10.1707 5.64391C18.6385 7.89767 21.4093 19.9633 21.1734 21.2262C21.1861 21.441 21.1136 21.6521 20.9716 21.8138C20.8296 21.9755 20.6295 22.0746 20.4149 22.0898C20.2002 22.1049 19.9883 22.0348 19.825 21.8946C19.6618 21.7544 19.5604 21.5555 19.5428 21.341C19.5771 19.7395 17.4175 8.9818 8.82713 6.94651C8.29681 7.52332 7.81462 8.14258 7.38538 8.7981C7.19326 8.70422 1.61325 18.9918 4.32113 22.537C7.5914 27.489 19.0876 29.4904 26.0398 29.1976C26.1111 25.0922 25.7569 20.9904 24.9829 16.9579C23.8122 11.3869 18.9406 5.72353 13.374 3.48105ZM28.4156 2.74372C33.4092 7.17843 36.7268 13.1947 37.8126 19.7844C37.9081 20.6557 38.318 24.5044 38.4761 26.0353C39.0291 25.2791 39.4553 24.4379 39.7378 23.5447C39.8973 23.0932 39.9938 22.6217 40.0245 22.1438C40.8908 14.7604 36.1329 5.55982 28.4156 2.74372Z" fill="#FD3600"/>
<path d="M60.7094 30.3111C59.0916 30.3111 57.5982 30.0311 56.2294 29.4711C54.8605 28.8904 53.6679 28.0815 52.6516 27.0444C51.656 26.0074 50.8783 24.7837 50.3183 23.3733C49.7583 21.9422 49.4783 20.3867 49.4783 18.7067C49.4783 17.0267 49.7479 15.4919 50.2871 14.1022C50.8471 12.7126 51.6249 11.5096 52.6205 10.4933C53.6368 9.45631 54.8294 8.66816 56.1982 8.1289C57.5671 7.56891 59.0708 7.28891 60.7094 7.28891C62.5553 7.28891 64.2145 7.65187 65.6871 8.37779C67.1805 9.08298 68.3938 10.0889 69.3271 11.3956C70.2812 12.6815 70.8619 14.1956 71.0694 15.9378H66.4027C66.1331 14.3408 65.4797 13.1378 64.4427 12.3289C63.4057 11.4993 62.1716 11.0845 60.7405 11.0845C59.4753 11.0845 58.3553 11.3852 57.3805 11.9867C56.4264 12.5882 55.6797 13.4593 55.1405 14.6C54.6012 15.72 54.3316 17.0785 54.3316 18.6756C54.3316 20.2933 54.6012 21.6933 55.1405 22.8756C55.7005 24.037 56.4679 24.9393 57.4427 25.5822C58.4175 26.2044 59.5375 26.5156 60.8027 26.5156C62.1508 26.5156 63.3434 26.1111 64.3805 25.3022C65.4175 24.4933 66.0916 23.2904 66.4027 21.6933H71.1316C70.8619 23.4356 70.2501 24.96 69.296 26.2667C68.3419 27.5526 67.1286 28.5481 65.656 29.2533C64.1834 29.9585 62.5345 30.3111 60.7094 30.3111ZM81.213 30.3111C79.4708 30.3111 77.936 29.9689 76.6086 29.2844C75.3019 28.5793 74.2753 27.6044 73.5286 26.36C72.8027 25.0948 72.4397 23.643 72.4397 22.0045C72.4397 20.3659 72.8027 18.9348 73.5286 17.7111C74.2753 16.4874 75.3019 15.5333 76.6086 14.8489C77.936 14.1645 79.4708 13.8222 81.213 13.8222C82.976 13.8222 84.5108 14.1645 85.8175 14.8489C87.1449 15.5333 88.1715 16.4874 88.8975 17.7111C89.6234 18.9348 89.9864 20.3659 89.9864 22.0045C89.9864 23.643 89.613 25.0948 88.8664 26.36C88.1404 27.6044 87.1138 28.5793 85.7864 29.2844C84.4797 29.9689 82.9552 30.3111 81.213 30.3111ZM81.213 26.64C81.9389 26.64 82.5923 26.4533 83.173 26.08C83.7745 25.7067 84.2515 25.1778 84.6041 24.4933C84.9567 23.7882 85.133 22.9482 85.133 21.9733C85.133 20.5422 84.7493 19.443 83.9819 18.6756C83.2352 17.8874 82.3123 17.4933 81.213 17.4933C80.1138 17.4933 79.1804 17.8874 78.413 18.6756C77.6664 19.4637 77.293 20.563 77.293 21.9733C77.293 22.9482 77.4693 23.7882 77.8219 24.4933C78.1745 25.1778 78.6412 25.7067 79.2219 26.08C79.8234 26.4533 80.4871 26.64 81.213 26.64ZM92.4602 30V14.1333H97.0335V17.8667H97.1268V30H92.4602ZM103.505 30V20.1689C103.505 19.2978 103.276 18.6445 102.82 18.2089C102.385 17.7733 101.742 17.5556 100.891 17.5556C100.165 17.5556 99.512 17.7215 98.9313 18.0533C98.3713 18.3852 97.9253 18.8415 97.5935 19.4222C97.2824 20.003 97.1268 20.6874 97.1268 21.4756L96.7224 17.6489C97.2409 16.4874 97.9979 15.5645 98.9935 14.88C100.01 14.1748 101.254 13.8222 102.727 13.8222C104.49 13.8222 105.838 14.32 106.771 15.3156C107.705 16.2904 108.171 17.6074 108.171 19.2667V30H103.505ZM138.908 30.3422C136.876 30.3422 135.362 29.8548 134.366 28.88C133.391 27.8844 132.904 26.3807 132.904 24.3689V10.5867L137.571 8.84446V24.5244C137.571 25.2296 137.768 25.7585 138.162 26.1111C138.556 26.4637 139.168 26.64 139.997 26.64C140.308 26.64 140.599 26.6089 140.868 26.5467C141.138 26.4844 141.408 26.4119 141.677 26.3289V29.8756C141.408 30.0207 141.024 30.1348 140.526 30.2178C140.049 30.3007 139.51 30.3422 138.908 30.3422ZM129.948 17.68V14.1333H141.677V17.68H129.948ZM151.394 30.3111C149.631 30.3111 148.096 29.9689 146.789 29.2844C145.483 28.5793 144.466 27.6044 143.74 26.36C143.035 25.1156 142.683 23.6844 142.683 22.0667C142.683 20.4282 143.035 18.997 143.74 17.7733C144.466 16.5289 145.472 15.5645 146.758 14.88C148.044 14.1748 149.538 13.8222 151.238 13.8222C152.877 13.8222 154.298 14.1541 155.5 14.8178C156.703 15.4815 157.637 16.4045 158.3 17.5867C158.964 18.7689 159.296 20.1585 159.296 21.7556C159.296 22.0874 159.286 22.3985 159.265 22.6889C159.244 22.9585 159.213 23.2178 159.172 23.4667H145.42V20.3867H155.407L154.598 20.9467C154.598 19.6607 154.287 18.717 153.665 18.1156C153.063 17.4933 152.234 17.1822 151.176 17.1822C149.952 17.1822 148.998 17.597 148.314 18.4267C147.65 19.2563 147.318 20.5007 147.318 22.16C147.318 23.7778 147.65 24.9807 148.314 25.7689C148.998 26.557 150.015 26.9511 151.363 26.9511C152.109 26.9511 152.752 26.8267 153.292 26.5778C153.831 26.3289 154.235 25.9244 154.505 25.3644H158.892C158.373 26.8993 157.481 28.1126 156.216 29.0044C154.972 29.8756 153.364 30.3111 151.394 30.3111ZM171.444 30C171.32 29.5437 171.226 29.0563 171.164 28.5378C171.123 28.0193 171.102 27.4178 171.102 26.7333H170.978V19.2356C170.978 18.5926 170.76 18.0948 170.324 17.7422C169.909 17.3689 169.287 17.1822 168.458 17.1822C167.669 17.1822 167.037 17.317 166.56 17.5867C166.103 17.8563 165.803 18.2504 165.658 18.7689H161.209C161.416 17.3378 162.152 16.1556 163.418 15.2222C164.683 14.2889 166.415 13.8222 168.613 13.8222C170.895 13.8222 172.637 14.3304 173.84 15.3467C175.043 16.363 175.644 17.8252 175.644 19.7333V26.7333C175.644 27.2519 175.675 27.7807 175.737 28.32C175.82 28.8385 175.945 29.3985 176.111 30H171.444ZM165.906 30.3111C164.33 30.3111 163.075 29.917 162.142 29.1289C161.209 28.32 160.742 27.2519 160.742 25.9244C160.742 24.4519 161.292 23.2696 162.391 22.3778C163.511 21.4652 165.066 20.8741 167.058 20.6045L171.693 19.9511V22.6578L167.835 23.2489C167.006 23.3733 166.394 23.6015 166 23.9333C165.606 24.2652 165.409 24.7215 165.409 25.3022C165.409 25.8207 165.595 26.2148 165.969 26.4844C166.342 26.7541 166.84 26.8889 167.462 26.8889C168.437 26.8889 169.266 26.6296 169.951 26.1111C170.635 25.5719 170.978 24.9496 170.978 24.2444L171.413 26.7333C170.957 27.9156 170.262 28.8074 169.329 29.4089C168.395 30.0104 167.255 30.3111 165.906 30.3111ZM190.097 30V26.4844L190.409 26.5467C190.201 27.6874 189.579 28.6 188.542 29.2844C187.526 29.9689 186.302 30.3111 184.871 30.3111C183.419 30.3111 182.154 29.9793 181.075 29.3156C180.017 28.6311 179.198 27.677 178.617 26.4533C178.037 25.2296 177.746 23.7882 177.746 22.1289C177.746 20.4489 178.047 18.9867 178.649 17.7422C179.25 16.4978 180.09 15.5333 181.169 14.8489C182.268 14.1645 183.543 13.8222 184.995 13.8222C186.509 13.8222 187.733 14.1748 188.666 14.88C189.62 15.5852 190.18 16.5496 190.346 17.7733L190.004 17.8045V7.60002H194.671V30H190.097ZM186.364 26.5778C187.463 26.5778 188.355 26.1941 189.04 25.4267C189.724 24.6385 190.066 23.5185 190.066 22.0667C190.066 20.6148 189.714 19.5052 189.009 18.7378C188.324 17.9496 187.422 17.5556 186.302 17.5556C185.223 17.5556 184.332 17.9496 183.626 18.7378C182.942 19.5259 182.6 20.6459 182.6 22.0978C182.6 23.5496 182.942 24.6593 183.626 25.4267C184.332 26.1941 185.244 26.5778 186.364 26.5778Z" fill="#202020"/>
<path d="M120.134 30.28C117.23 30.28 114.907 29.637 113.165 28.3511C111.423 27.0444 110.407 25.2089 110.116 22.8444H114.721C114.866 24.0474 115.447 25.0015 116.463 25.7067C117.479 26.3911 118.775 26.7333 120.352 26.7333C121.638 26.7333 122.623 26.5052 123.307 26.0489C124.012 25.5926 124.365 24.9807 124.365 24.2133C124.365 23.4874 124.158 22.9067 123.743 22.4711C123.328 22.0148 122.612 21.6519 121.596 21.3822L117.427 20.2311C115.291 19.6296 113.725 18.8104 112.73 17.7733C111.755 16.7156 111.267 15.3985 111.267 13.8222C111.267 12.4741 111.61 11.3126 112.294 10.3378C112.999 9.34224 113.984 8.5852 115.25 8.06668C116.515 7.52742 117.998 7.25779 119.698 7.25779C122.312 7.25779 124.396 7.88002 125.952 9.12446C127.507 10.3482 128.389 11.9763 128.596 14.0089H123.992C123.784 12.9096 123.276 12.1008 122.467 11.5822C121.679 11.0637 120.663 10.8045 119.418 10.8045C118.34 10.8045 117.479 11.0119 116.836 11.4267C116.193 11.8415 115.872 12.4015 115.872 13.1067C115.872 13.6459 116.048 14.1437 116.401 14.6C116.753 15.0356 117.49 15.4089 118.61 15.72L122.778 16.8711C124.977 17.4726 126.553 18.3022 127.507 19.36C128.482 20.397 128.97 21.7141 128.97 23.3111C128.97 25.5511 128.192 27.2726 126.636 28.4756C125.081 29.6785 122.913 30.28 120.134 30.28Z" fill="#FD3600"/>
</svg>
