<svg width="22" height="23" viewBox="0 0 22 23" fill="none" xmlns="http://www.w3.org/2000/svg">
<g clip-path="url(#clip0_27_274)">
<path d="M14.1075 21.0077C14.2561 20.0826 14.3333 19.1337 14.3333 18.1667C14.3333 16.0528 13.9644 14.0251 13.2874 12.1445M13.2874 12.1445C9.90399 13.7761 7.11643 16.4479 5.33965 19.7449M13.2874 12.1445C12.887 11.0322 12.3788 9.9713 11.7755 8.97447M13.2874 12.1445C15.6031 11.0277 18.198 10.3982 20.939 10.389M11.7755 8.97447C10.2912 6.52209 8.23086 4.45728 5.78211 2.96758M11.7755 8.97447C8.80085 11.2446 5.08866 12.5975 1.06102 12.611M11.7755 8.97447C13.7829 7.44248 15.4544 5.49277 16.6604 3.25506M21 11.5C21 17.0228 16.5228 21.5 11 21.5C5.47715 21.5 1 17.0228 1 11.5C1 5.97715 5.47715 1.5 11 1.5C16.5228 1.5 21 5.97715 21 11.5Z" stroke="white" stroke-width="1.5" stroke-linecap="round" stroke-linejoin="round"/>
</g>
<defs>
<clipPath id="clip0_27_274">
<rect width="22" height="23" fill="white"/>
</clipPath>
</defs>
</svg>
