<svg width="13" height="23" viewBox="0 0 13 23" fill="none" xmlns="http://www.w3.org/2000/svg">
<g clip-path="url(#clip0_27_265)">
<path d="M6.13333 21.5H6.97778C7.72772 21.5 8.1027 21.5 8.36556 21.309C8.45046 21.2473 8.52511 21.1727 8.58679 21.0878C8.77778 20.8249 8.77778 20.4499 8.77778 19.7V13.1667H10.3111C11.0611 13.1667 11.436 13.1667 11.6989 12.9757C11.7838 12.914 11.8584 12.8393 11.9201 12.7545C12.1111 12.4916 12.1111 12.1166 12.1111 11.3667V11.0778C12.1111 10.3278 12.1111 9.95286 11.9201 9.68999C11.8584 9.6051 11.7838 9.53044 11.6989 9.46876C11.436 9.27778 11.0611 9.27778 10.3111 9.27778H8.77778V7.05556C8.77778 6.43248 8.77778 6.12094 8.91175 5.88889C8.99952 5.73687 9.12576 5.61063 9.27778 5.52286C9.50983 5.38889 9.82137 5.38889 10.4444 5.38889C11.0675 5.38889 11.3791 5.38889 11.6111 5.25491C11.7631 5.16715 11.8894 5.04091 11.9771 4.88889C12.1111 4.65684 12.1111 4.3453 12.1111 3.72222V3.2284C12.1111 2.54673 12.1111 2.20589 11.9519 1.95862C11.8746 1.83859 11.7725 1.73651 11.6525 1.65922C11.4052 1.5 11.0644 1.5 10.3827 1.5C7.99688 1.5 6.80397 1.5 5.9385 2.05728C5.51841 2.32778 5.16111 2.68508 4.89061 3.10516C4.33333 3.97063 4.33333 5.16355 4.33333 7.54938V9.27778H2.8C2.05005 9.27778 1.67508 9.27778 1.41221 9.46876C1.32732 9.53044 1.25266 9.6051 1.19098 9.68999C1 9.95286 1 10.3278 1 11.0778V11.3667C1 12.1166 1 12.4916 1.19098 12.7545C1.25266 12.8393 1.32732 12.914 1.41221 12.9757C1.67508 13.1667 2.05005 13.1667 2.8 13.1667H4.33333V19.7C4.33333 20.4499 4.33333 20.8249 4.52432 21.0878C4.586 21.1727 4.66065 21.2473 4.74555 21.309C5.00841 21.5 5.38339 21.5 6.13333 21.5Z" stroke="white" stroke-width="1.5" stroke-linejoin="round"/>
</g>
<defs>
<clipPath id="clip0_27_265">
<rect width="13" height="23" fill="white"/>
</clipPath>
</defs>
</svg>
