<svg width="17" height="17" viewBox="0 0 17 17" fill="none" xmlns="http://www.w3.org/2000/svg">
<path d="M6.21723 1.32029C4.85214 -0.0442644 2.63899 -0.0442644 1.2739 1.32029C0.507194 2.0867 0.171329 3.1213 0.265451 4.12057C0.29063 6.804 1.69252 9.87832 4.18184 12.3667C6.67119 14.855 9.74662 16.2563 12.4309 16.2814C13.4303 16.3755 14.4652 16.0399 15.2318 15.2735C16.5971 13.9088 16.5971 11.6961 15.2318 10.3314C13.8668 8.96684 11.6536 8.96684 10.2885 10.3314C9.96601 10.6538 9.71944 11.0241 9.54918 11.4195C8.69847 10.8913 7.86639 10.2358 7.08961 9.45935C6.31298 8.68302 5.65741 7.85146 5.12907 7.00127C5.52445 6.8311 5.89479 6.58469 6.21723 6.26237C7.58245 4.89768 7.58245 2.68498 6.21723 1.32029Z" fill="white"/>
</svg>
