<svg width="40" height="40" viewBox="0 0 40 40" fill="none" xmlns="http://www.w3.org/2000/svg">
<path fill-rule="evenodd" clip-rule="evenodd" d="M6.98253 26.7267C9.2958 26.7267 11.1717 28.6038 11.1717 30.9181V35.8086C11.1717 38.1229 9.2958 40 6.98253 40H4.18919C1.87592 40 0 38.1229 0 35.8086V30.9181C0 28.6038 1.87592 26.7267 4.18919 26.7267H6.98253ZM6.98253 29.5215H4.18919C3.41838 29.5215 2.79334 30.1464 2.79334 30.9181V35.8086C2.79334 36.5803 3.41838 37.2053 4.18919 37.2053H6.98253C7.75334 37.2053 8.37838 36.5803 8.37838 35.8086V30.9181C8.37838 30.1464 7.75334 29.5215 6.98253 29.5215ZM20.9459 20.4396C23.2601 20.4396 25.1351 22.3167 25.1351 24.631V35.8086C25.1351 38.1229 23.2601 40 20.9459 40H18.1534C15.8402 40 13.9642 38.1229 13.9642 35.8086V24.631C13.9642 22.3167 15.8402 20.4396 18.1534 20.4396H20.9459ZM20.9459 23.2343H18.1534C17.3826 23.2343 16.7568 23.8593 16.7568 24.631V35.8086C16.7568 36.5803 17.3826 37.2053 18.1534 37.2053H20.9459C21.7176 37.2053 22.3426 36.5803 22.3426 35.8086V24.631C22.3426 23.8593 21.7176 23.2343 20.9459 23.2343ZM34.9102 12.0567C37.2235 12.0567 39.0994 13.9339 39.0994 16.2481V35.8086C39.0994 38.1229 37.2235 40 34.9102 40H32.1177C29.8036 40 27.9285 38.1229 27.9285 35.8086V16.2481C27.9285 13.9339 29.8036 12.0567 32.1177 12.0567H34.9102ZM34.9102 14.8515H32.1177C31.346 14.8515 30.721 15.4765 30.721 16.2481V35.8086C30.721 36.5803 31.346 37.2053 32.1177 37.2053H34.9102C35.6818 37.2053 36.3069 36.5803 36.3069 35.8086V16.2481C36.3069 15.4765 35.681 14.8515 34.9102 14.8515Z" fill="#202020"/>
<path fill-rule="evenodd" clip-rule="evenodd" d="M34.431 5.56247L3.47844 23.0118C2.80678 23.3903 1.95498 23.1529 1.57655 22.4812C1.19813 21.8095 1.43552 20.9577 2.10719 20.5793L33.0653 3.12575L31.5111 2.75571C30.7613 2.57697 30.2977 1.82292 30.4764 1.07306C30.6551 0.323193 31.4078 -0.140418 32.1576 0.0383208L36.9124 1.1708C37.6622 1.34954 38.1258 2.10359 37.9471 2.85345L36.8146 7.60818C36.6359 8.35805 35.8818 8.82166 35.1334 8.64292C34.3835 8.46418 33.9199 7.71012 34.0972 6.96026L34.431 5.56247Z" fill="#202020"/>
</svg>
