<svg width="20" height="20" viewBox="0 0 20 20" fill="none" xmlns="http://www.w3.org/2000/svg">
<path d="M7.88445 1.76211C9.02887 0.537631 10.9707 0.53763 12.1151 1.76211C12.6859 2.37283 13.4928 2.70705 14.3282 2.67881C16.0033 2.62221 17.3764 3.99528 17.3198 5.67034C17.2915 6.5058 17.6258 7.31268 18.2365 7.88347C19.4609 9.02789 19.4609 10.9697 18.2365 12.1141C17.6258 12.6849 17.2915 13.4918 17.3198 14.3273C17.3764 16.0023 16.0033 17.3754 14.3282 17.3188C13.4928 17.2906 12.6859 17.6248 12.1151 18.2355C10.9707 19.46 9.02887 19.46 7.88445 18.2355C7.31366 17.6248 6.50677 17.2906 5.67132 17.3188C3.99626 17.3754 2.62318 16.0023 2.67979 14.3273C2.70803 13.4918 2.3738 12.6849 1.76308 12.1141C0.538607 10.9697 0.538607 9.02789 1.76308 7.88347C2.3738 7.31268 2.70803 6.5058 2.67979 5.67034C2.62318 3.99528 3.99626 2.62221 5.67132 2.67881C6.50677 2.70705 7.31366 2.37283 7.88445 1.76211Z" stroke="#FD3600" stroke-width="1.5"/>
<path d="M6.5 10L7.96217 11.7407C8.22544 12.0541 8.35707 12.2108 8.52668 12.2461C8.58123 12.2574 8.63729 12.2596 8.69255 12.2524C8.86436 12.2302 9.0076 12.0841 9.29409 11.7917L13.5 7.5" stroke="#FD3600" stroke-width="1.5" stroke-linecap="round" stroke-linejoin="round"/>
</svg>
