<svg width="40" height="40" viewBox="0 0 40 40" fill="none" xmlns="http://www.w3.org/2000/svg">
<path fill-rule="evenodd" clip-rule="evenodd" d="M13.9531 18.1395V21.8605C13.9531 22.9712 14.3941 24.0354 15.1792 24.8205C15.9643 25.6056 17.0285 26.0465 18.1392 26.0465H21.8601C22.9708 26.0465 24.035 25.6056 24.8201 24.8205C25.6052 24.0354 26.0461 22.9712 26.0461 21.8605V18.1395C26.0461 17.0288 25.6052 15.9647 24.8201 15.1795C24.035 14.3944 22.9708 13.9535 21.8601 13.9535H18.1392C17.0285 13.9535 15.9643 14.3944 15.1792 15.1795C14.3941 15.9647 13.9531 17.0288 13.9531 18.1395ZM16.7438 18.1395C16.7438 17.7693 16.8908 17.414 17.1531 17.1535C17.4136 16.8912 17.7689 16.7442 18.1392 16.7442H21.8601C22.2303 16.7442 22.5857 16.8912 22.8461 17.1535C23.1085 17.414 23.2555 17.7693 23.2555 18.1395V21.8605C23.2555 22.2307 23.1085 22.5861 22.8461 22.8465C22.5857 23.1088 22.2303 23.2558 21.8601 23.2558H18.1392C17.7689 23.2558 17.4136 23.1088 17.1531 22.8465C16.8908 22.5861 16.7438 22.2307 16.7438 21.8605V18.1395Z" fill="#202020"/>
<path fill-rule="evenodd" clip-rule="evenodd" d="M0 4.18605V7.90698C0 9.01768 0.44093 10.0819 1.22605 10.867C2.01116 11.6521 3.07535 12.093 4.18605 12.093H7.90698C9.01768 12.093 10.0819 11.6521 10.867 10.867C11.6521 10.0819 12.093 9.01768 12.093 7.90698V4.18605C12.093 3.07535 11.6521 2.01116 10.867 1.22605C10.0819 0.44093 9.01768 0 7.90698 0H4.18605C3.07535 0 2.01116 0.44093 1.22605 1.22605C0.44093 2.01116 0 3.07535 0 4.18605ZM2.7907 4.18605C2.7907 3.81581 2.93767 3.46047 3.2 3.2C3.46047 2.93767 3.81581 2.7907 4.18605 2.7907H7.90698C8.27721 2.7907 8.63256 2.93767 8.89302 3.2C9.15535 3.46047 9.30233 3.81581 9.30233 4.18605V7.90698C9.30233 8.27721 9.15535 8.63256 8.89302 8.89302C8.63256 9.15535 8.27721 9.30233 7.90698 9.30233H4.18605C3.81581 9.30233 3.46047 9.15535 3.2 8.89302C2.93767 8.63256 2.7907 8.27721 2.7907 7.90698V4.18605Z" fill="#202020"/>
<path fill-rule="evenodd" clip-rule="evenodd" d="M27.9072 32.093V35.814C27.9072 36.9247 28.3482 37.9888 29.1333 38.774C29.9184 39.5591 30.9826 40 32.0933 40H35.8142C36.9249 40 37.9891 39.5591 38.7742 38.774C39.5593 37.9888 40.0003 36.9247 40.0003 35.814V32.093C40.0003 30.9823 39.5593 29.9181 38.7742 29.133C37.9891 28.3479 36.9249 27.907 35.8142 27.907H32.0933C30.9826 27.907 29.9184 28.3479 29.1333 29.133C28.3482 29.9181 27.9072 30.9823 27.9072 32.093ZM30.6979 32.093C30.6979 31.7228 30.8449 31.3674 31.1072 31.107C31.3677 30.8447 31.723 30.6977 32.0933 30.6977H35.8142C36.1844 30.6977 36.5398 30.8447 36.8003 31.107C37.0626 31.3674 37.2096 31.7228 37.2096 32.093V35.814C37.2096 36.1842 37.0626 36.5395 36.8003 36.8C36.5398 37.0623 36.1844 37.2093 35.8142 37.2093H32.0933C31.723 37.2093 31.3677 37.0623 31.1072 36.8C30.8449 36.5395 30.6979 36.1842 30.6979 35.814V32.093Z" fill="#202020"/>
<path fill-rule="evenodd" clip-rule="evenodd" d="M10.6981 7.44188H34.8841C35.5018 7.44188 36.0916 7.68746 36.5288 8.12281C36.9641 8.56002 37.2097 9.14979 37.2097 9.76746V16.2791C37.2097 16.8968 36.9641 17.4865 36.5288 17.9237C36.0916 18.3591 35.5018 18.6047 34.8841 18.6047H29.3027C28.5325 18.6047 27.9074 19.2298 27.9074 20C27.9074 20.7703 28.5325 21.3954 29.3027 21.3954H34.8841C36.2404 21.3954 37.5427 20.8558 38.5027 19.8977C39.4609 18.9377 40.0004 17.6354 40.0004 16.2791C40.0004 14.2642 40.0004 11.7823 40.0004 9.76746C40.0004 8.41118 39.4609 7.10886 38.5027 6.14886C37.5427 5.19072 36.2404 4.65118 34.8841 4.65118C27.286 4.65118 10.6981 4.65118 10.6981 4.65118C9.92785 4.65118 9.30273 5.2763 9.30273 6.04653C9.30273 6.81677 9.92785 7.44188 10.6981 7.44188Z" fill="#202020"/>
<path fill-rule="evenodd" clip-rule="evenodd" d="M21.8605 32.5582H5.11628C4.49861 32.5582 3.90884 32.3126 3.47163 31.8772C3.03628 31.44 2.7907 30.8503 2.7907 30.2326C2.7907 28.2177 2.7907 25.7358 2.7907 23.721C2.7907 23.1033 3.03628 22.5135 3.47163 22.0763C3.90884 21.641 4.49861 21.3954 5.11628 21.3954H15.3488C16.1191 21.3954 16.7442 20.7703 16.7442 20C16.7442 19.2298 16.1191 18.6047 15.3488 18.6047H5.11628C3.76 18.6047 2.45767 19.1442 1.49767 20.1024C0.539535 21.0624 0 22.3647 0 23.721V30.2326C0 31.5889 0.539535 32.8912 1.49767 33.8512C2.45767 34.8093 3.76 35.3489 5.11628 35.3489H21.8605C22.6307 35.3489 23.2558 34.7237 23.2558 33.9535C23.2558 33.1833 22.6307 32.5582 21.8605 32.5582Z" fill="#202020"/>
<path fill-rule="evenodd" clip-rule="evenodd" d="M34.0091 22.7349L31.2761 20L34.0091 17.2651C34.5542 16.7218 34.5542 15.8362 34.0091 15.293C33.4658 14.7479 32.5803 14.7479 32.037 15.293L28.3161 19.0139C27.7709 19.559 27.7709 20.4409 28.3161 20.986L32.037 24.7069C32.5803 25.2521 33.4658 25.2521 34.0091 24.7069C34.5542 24.1637 34.5542 23.2781 34.0091 22.7349Z" fill="#202020"/>
<path fill-rule="evenodd" clip-rule="evenodd" d="M20.9864 38.6604L24.7073 34.9395C25.2524 34.3944 25.2524 33.5125 24.7073 32.9674L20.9864 29.2465C20.4431 28.7014 19.5576 28.7014 19.0143 29.2465C18.4692 29.7897 18.4692 30.6753 19.0143 31.2186L21.7473 33.9535L19.0143 36.6883C18.4692 37.2316 18.4692 38.1172 19.0143 38.6604C19.5576 39.2056 20.4431 39.2056 20.9864 38.6604Z" fill="#202020"/>
</svg>
