<svg width="30" height="34" viewBox="0 0 30 34" fill="none" xmlns="http://www.w3.org/2000/svg">
<path d="M15.0002 2C6.71593 2 -5.72365e-05 8.66667 1.66687 17C2.77568 22.5432 8.30888 27.7176 11.8898 30.5612C13.0602 31.4906 13.6454 31.9553 14.5541 32.078C14.8061 32.112 15.1944 32.112 15.4463 32.078C16.355 31.9553 16.9402 31.4906 18.1106 30.5613C21.6917 27.7177 27.225 22.5432 28.3335 17C30 8.66667 23.2845 2 15.0002 2Z" stroke="#fd3600" stroke-width="2.5" stroke-linejoin="round"/>
<path d="M20 15.5833C20 18.3448 17.7614 20.5833 15 20.5833C12.2386 20.5833 10 18.3448 10 15.5833C10 12.8219 12.2386 10.5833 15 10.5833C17.7614 10.5833 20 12.8219 20 15.5833Z" stroke="#fd3600" stroke-width="2.5" stroke-linejoin="round"/>
</svg>
