<svg width="40" height="40" viewBox="0 0 40 40" fill="none" xmlns="http://www.w3.org/2000/svg">
<g clip-path="url(#clip0_182_619)">
<path fill-rule="evenodd" clip-rule="evenodd" d="M27.5 40V35H25V40H27.5ZM15 40V35H12.5V40H15ZM21.25 40V35H18.75V40H21.25ZM5 25H0V27.5H5V25ZM40 25H35V27.5H40V25ZM5 18.75H0V21.25H5V18.75ZM40 18.75H35V21.25H40V18.75ZM5 12.5H0V15H5V12.5ZM40 12.5H35V15H40V12.5ZM27.5 5V0H25V5H27.5ZM15 5V0H12.5V5H15ZM21.25 5V0H18.75V5H21.25Z" fill="#202020"/>
<path fill-rule="evenodd" clip-rule="evenodd" d="M25 12.5H27.5V27.5H25V12.5Z" fill="#202020"/>
<path fill-rule="evenodd" clip-rule="evenodd" d="M12.5 16.875V27.5H15V23.125H18.75V27.5H21.25V16.875C21.25 14.4588 19.2937 12.5 16.875 12.5C14.4563 12.5 12.5 14.4588 12.5 16.875ZM18.75 20.625V16.875C18.75 15.8394 17.9125 15 16.875 15C15.8375 15 15 15.8394 15 16.875V20.625H18.75Z" fill="#202020"/>
<path fill-rule="evenodd" clip-rule="evenodd" d="M36.2589 9.9952C36.2589 8.33854 35.6006 6.7495 34.4282 5.57708C33.2559 4.40575 31.6661 3.74701 30.0083 3.74701C24.4582 3.74701 15.5556 3.74701 10.0055 3.74701C8.34765 3.74701 6.75791 4.40575 5.58554 5.57708C4.41317 6.7495 3.75488 8.33854 3.75488 9.9952V29.9907C3.75488 31.6474 4.41317 33.2364 5.58554 34.4088C6.75791 35.5802 8.34765 36.2389 10.0055 36.2389H30.0083C31.6661 36.2389 33.2559 35.5802 34.4282 34.4088C35.6006 33.2364 36.2589 31.6474 36.2589 29.9907V9.9952ZM33.7583 9.9952V29.9907C33.7583 30.9843 33.3633 31.9386 32.6603 32.6409C31.9563 33.3444 31.0025 33.7392 30.0083 33.7392H10.0055C9.01131 33.7392 8.05747 33.3444 7.35351 32.6409C6.65044 31.9386 6.25547 30.9843 6.25547 29.9907V9.9952C6.25547 9.00164 6.65044 8.04734 7.35351 7.34498C8.05747 6.64153 9.01131 6.24672 10.0055 6.24672H30.0083C31.0025 6.24672 31.9563 6.64153 32.6603 7.34498C33.3633 8.04734 33.7583 9.00164 33.7583 9.9952Z" fill="#202020"/>
</g>
<defs>
<clipPath id="clip0_182_619">
<rect width="40" height="40" fill="white"/>
</clipPath>
</defs>
</svg>
