<svg width="36" height="30" viewBox="0 0 36 30" fill="none" xmlns="http://www.w3.org/2000/svg">
<path d="M7.79119 12.0833C6.69231 12.0833 5.61811 11.7575 4.70444 11.147C3.79077 10.5364 3.07867 9.66869 2.65819 8.65345C2.2377 7.6382 2.12773 6.52107 2.34217 5.44332C2.55661 4.36557 3.08583 3.37562 3.86291 2.59865C4.64 1.82169 5.63003 1.29261 6.70781 1.07833C7.78559 0.864055 8.90271 0.974199 9.91789 1.39483C10.9331 1.81547 11.8007 2.5277 12.4111 3.44147C13.0215 4.35523 13.3472 5.42947 13.347 6.52835C13.3452 8.00121 12.7592 9.41322 11.7177 10.4546C10.6761 11.496 9.26405 12.0818 7.79119 12.0833ZM7.79119 3.47168C7.18684 3.47168 6.59605 3.65088 6.09354 3.98663C5.59103 4.32237 5.19936 4.79957 4.96804 5.35791C4.73673 5.91624 4.67617 6.53062 4.79401 7.12337C4.91185 7.71612 5.20281 8.26062 5.63009 8.68802C6.05737 9.11542 6.60179 9.40653 7.19451 9.52453C7.78723 9.64254 8.40163 9.58214 8.96003 9.35098C9.51842 9.11982 9.99574 8.72827 10.3316 8.22585C10.6675 7.72343 10.8469 7.1327 10.847 6.52835C10.8464 5.718 10.5243 4.941 9.95137 4.36792C9.37845 3.79484 8.60154 3.47251 7.79119 3.47168Z" fill="#202020"/>
<path d="M9.04947 20.6999H4.46614C3.30404 20.6986 2.18991 20.2364 1.36818 19.4147C0.54646 18.5929 0.0842651 17.4788 0.0830078 16.3167V16.0335C0.085072 14.3234 0.76531 12.684 1.97451 11.4748C3.18371 10.2656 4.82315 9.58542 6.53321 9.58337H7.78321C8.11473 9.58337 8.43267 9.71507 8.66709 9.94949C8.90151 10.1839 9.03321 10.5019 9.03321 10.8334C9.03321 11.1649 8.90151 11.4828 8.66709 11.7173C8.43267 11.9517 8.11473 12.0834 7.78321 12.0834H6.53321C5.48591 12.0846 4.48185 12.5011 3.74131 13.2417C3.00076 13.9822 2.58419 14.9863 2.58301 16.0336V16.3167C2.58355 16.816 2.78213 17.2946 3.13517 17.6477C3.48821 18.0007 3.96687 18.1993 4.46614 18.1998H9.04947C9.381 18.1998 9.69894 18.3315 9.93336 18.566C10.1678 18.8004 10.2995 19.1183 10.2995 19.4498C10.2995 19.7814 10.1678 20.0993 9.93336 20.3337C9.69894 20.5681 9.381 20.6999 9.04947 20.6999Z" fill="#202020"/>
<path d="M28.2082 12.0833C27.1093 12.0833 26.0351 11.7575 25.1214 11.147C24.2078 10.5364 23.4957 9.66869 23.0752 8.65345C22.6547 7.6382 22.5447 6.52107 22.7592 5.44332C22.9736 4.36557 23.5028 3.37562 24.2799 2.59865C25.057 1.82169 26.047 1.29261 27.1248 1.07833C28.2026 0.864055 29.3197 0.974199 30.3349 1.39483C31.3501 1.81547 32.2177 2.5277 32.8281 3.44147C33.4385 4.35523 33.7642 5.42947 33.764 6.52835C33.7622 8.00121 33.1762 9.41322 32.1347 10.4546C31.0931 11.496 29.681 12.0818 28.2082 12.0833ZM28.2082 3.47168C27.6038 3.47168 27.013 3.65088 26.5105 3.98663C26.008 4.32237 25.6163 4.79957 25.385 5.35791C25.1537 5.91624 25.0932 6.53062 25.211 7.12337C25.3288 7.71612 25.6198 8.26062 26.0471 8.68802C26.4744 9.11542 27.0188 9.40653 27.6115 9.52453C28.2042 9.64254 28.8186 9.58214 29.377 9.35098C29.9354 9.11982 30.4127 8.72827 30.7486 8.22585C31.0845 7.72343 31.2638 7.1327 31.264 6.52835C31.2634 5.718 30.9413 4.941 30.3684 4.36792C29.7954 3.79484 29.0185 3.47251 28.2082 3.47168Z" fill="#202020"/>
<path d="M31.5498 20.6999H26.9502C26.6187 20.6999 26.3007 20.5682 26.0663 20.3338C25.8319 20.0994 25.7002 19.7814 25.7002 19.4499C25.7002 19.1184 25.8319 18.8004 26.0663 18.566C26.3007 18.3316 26.6187 18.1999 26.9502 18.1999H31.5498C32.0469 18.1972 32.5227 17.9974 32.8727 17.6444C33.2226 17.2913 33.4183 16.8138 33.4167 16.3167V16.0335C33.4155 14.9862 32.9989 13.9822 32.2583 13.2416C31.5178 12.5011 30.5137 12.0846 29.4665 12.0834H28.2165C27.8849 12.0834 27.567 11.9517 27.3326 11.7173C27.0982 11.4828 26.9665 11.1649 26.9665 10.8334C26.9665 10.5019 27.0982 10.1839 27.3326 9.94949C27.567 9.71507 27.8849 9.58337 28.2165 9.58337H29.4665C31.1765 9.58542 32.816 10.2656 34.0252 11.4749C35.2344 12.6841 35.9146 14.3235 35.9167 16.0336V16.3167C35.9176 17.4767 35.4583 18.5896 34.6396 19.4113C33.821 20.2331 32.7097 20.6965 31.5498 20.6999Z" fill="#202020"/>
<path d="M17.9999 18.4717C16.8736 18.4717 15.7727 18.1377 14.8363 17.512C13.8998 16.8863 13.17 15.9969 12.739 14.9564C12.3081 13.9159 12.1954 12.7709 12.4151 11.6663C12.6349 10.5617 13.1773 9.54712 13.9737 8.75081C14.7702 7.95449 15.7849 7.41224 16.8895 7.19263C17.9941 6.97301 19.139 7.08589 20.1795 7.517C21.22 7.94811 22.1092 8.67808 22.7348 9.6146C23.3604 10.5511 23.6942 11.6521 23.694 12.7783C23.6922 14.2879 23.0917 15.7351 22.0242 16.8025C20.9567 17.8698 19.5094 18.4701 17.9999 18.4717ZM17.9999 9.58335C17.3682 9.58335 16.7506 9.77066 16.2254 10.1216C15.7001 10.4725 15.2907 10.9714 15.0489 11.555C14.8071 12.1386 14.7438 12.7808 14.867 13.4004C14.9902 14.02 15.2943 14.5891 15.7409 15.0359C16.1876 15.4826 16.7566 15.7869 17.3762 15.9102C17.9957 16.0336 18.638 15.9704 19.2216 15.7288C19.8053 15.4872 20.3042 15.0779 20.6553 14.5527C21.0064 14.0275 21.1939 13.4101 21.194 12.7783C21.193 11.9314 20.8562 11.1195 20.2574 10.5205C19.6587 9.92159 18.8468 9.58456 17.9999 9.58335Z" fill="#202020"/>
<path d="M21.333 29.5833H14.6663C13.4511 29.5821 12.2861 29.0988 11.4268 28.2396C10.5675 27.3803 10.0842 26.2152 10.083 25V23.8883C10.083 21.7887 10.9171 19.7751 12.4017 18.2904C13.8864 16.8058 15.9 15.9717 17.9997 15.9717C20.0993 15.9717 22.1129 16.8058 23.5976 18.2904C25.0823 19.7751 25.9163 21.7887 25.9163 23.8883V25C25.9151 26.2152 25.4318 27.3803 24.5725 28.2396C23.7133 29.0988 22.5482 29.5821 21.333 29.5833ZM17.9997 18.4717C16.5636 18.4733 15.1868 19.0446 14.1713 20.06C13.1559 21.0755 12.5847 22.4523 12.583 23.8883V25C12.5835 25.5524 12.8032 26.082 13.1938 26.4726C13.5844 26.8632 14.114 27.0828 14.6663 27.0833H21.333C21.8854 27.0828 22.415 26.8632 22.8056 26.4726C23.1962 26.082 23.4158 25.5524 23.4163 25V23.8883C23.4147 22.4523 22.8435 21.0755 21.828 20.06C20.8125 19.0446 19.4358 18.4733 17.9997 18.4717Z" fill="#202020"/>
</svg>
