<svg width="22" height="23" viewBox="0 0 22 23" fill="none" xmlns="http://www.w3.org/2000/svg">
<g clip-path="url(#clip0_27_267)">
<path d="M18.2222 5.38845C18.2222 6.0021 17.7248 6.49957 17.1111 6.49957C16.4975 6.49957 16 6.0021 16 5.38845C16 4.77481 16.4975 4.27734 17.1111 4.27734C17.7248 4.27734 18.2222 4.77481 18.2222 5.38845Z" fill="white"/>
<path d="M1 8.7C1 5.70021 1 4.20032 1.76393 3.14886C2.01065 2.80928 2.30928 2.51065 2.64886 2.26393C3.70032 1.5 5.20021 1.5 8.2 1.5H13.8C16.7998 1.5 18.2997 1.5 19.3511 2.26393C19.6907 2.51065 19.9894 2.80928 20.2361 3.14886C21 4.20032 21 5.70021 21 8.7V14.3C21 17.2998 21 18.7997 20.2361 19.8511C19.9894 20.1907 19.6907 20.4894 19.3511 20.7361C18.2997 21.5 16.7998 21.5 13.8 21.5H8.2C5.20021 21.5 3.70032 21.5 2.64886 20.7361C2.30928 20.4894 2.01065 20.1907 1.76393 19.8511C1 18.7997 1 17.2998 1 14.3V8.7Z" stroke="white" stroke-width="1.5" stroke-linejoin="round"/>
<path d="M15.4445 11.5001C15.4445 13.9547 13.4547 15.9445 11.0001 15.9445C8.5455 15.9445 6.55566 13.9547 6.55566 11.5001C6.55566 9.0455 8.5455 7.05566 11.0001 7.05566C13.4547 7.05566 15.4445 9.0455 15.4445 11.5001Z" stroke="white" stroke-width="1.5" stroke-linejoin="round"/>
</g>
<defs>
<clipPath id="clip0_27_267">
<rect width="22" height="23" fill="white"/>
</clipPath>
</defs>
</svg>
