<svg width="788" height="454" viewBox="0 0 788 454" fill="none" xmlns="http://www.w3.org/2000/svg">
<mask id="mask0_20_4564" style="mask-type:alpha" maskUnits="userSpaceOnUse" x="0" y="0" width="788" height="454">
<path d="M787.999 0H0.582031V453.594H787.999V0Z" fill="#ED5521"/>
</mask>
<g mask="url(#mask0_20_4564)">
<path d="M246.84 326.424L246.899 273.567L201.502 247.495L156.164 273.686V326.069L202.211 352.555V485.877H200.792V353.383L154.745 326.896C154.745 308.923 154.805 290.95 154.745 272.918C170.351 263.931 185.897 254.944 201.442 245.958C217.048 254.885 232.594 263.872 248.199 272.859L248.14 326.483H246.84V326.424Z" fill="#F2F3F4"/>
<path d="M292.886 193.516V87.2131H294.246V193.516H292.886Z" fill="#F2F3F4"/>
<path d="M338.874 166.97V114.232L293.536 88.0409L202.152 140.778V246.726H200.732V139.951C231.648 122.155 262.622 104.3 293.477 86.3855L340.174 113.345V166.911H338.874V166.97Z" fill="#F2F3F4"/>
<path d="M384.92 246.667V193.93L339.227 167.561L339.937 166.378L386.279 193.161L386.338 246.667H384.92Z" fill="#F2F3F4"/>
<path d="M430.969 326.423V273.686L385.276 247.317L385.985 246.075L432.328 272.858V326.423H430.969Z" fill="#F2F3F4"/>
<path d="M384.921 299.877V246.666H386.34V299.877H384.921Z" fill="#F2F3F4"/>
<path d="M430.968 485.817V433.081L384.92 406.593V352.614C400.526 343.628 416.072 334.641 431.617 325.654L478.02 352.319L477.31 353.502L431.559 327.191L386.34 353.383V405.766L432.386 432.252V485.817H430.968Z" fill="#F2F3F4"/>
<path d="M477.015 485.818V406.062H478.434V485.818H477.015Z" fill="#F2F3F4"/>
<path d="M155.807 327.014L64.1267 379.988V485.818H62.7085V379.16L155.098 325.832L155.807 327.014Z" fill="#F2F3F4"/>
<path d="M108.756 379.515V353.028H110.115V379.515H108.756Z" fill="#F2F3F4"/>
<path d="M154.803 432.726V326.423H156.162V432.726H154.803Z" fill="#F2F3F4"/>
<path d="M246.84 485.818V379.574H248.199V485.818H246.84Z" fill="#F2F3F4"/>
<path d="M247.902 219.53L294.244 246.312V485.818H292.885V247.081L247.192 220.712L247.902 219.53Z" fill="#F2F3F4"/>
<path d="M338.872 432.725V166.969H340.291V432.725H338.872Z" fill="#F2F3F4"/>
<path d="M569.049 193.516V140.778L523.711 114.587L432.328 167.324V273.212H430.908V166.496C461.823 148.7 492.797 130.845 523.653 112.931L570.35 139.891V193.456H569.049V193.516Z" fill="#F2F3F4"/>
<path d="M523.004 326.364V113.818H524.422V326.364H523.004Z" fill="#F2F3F4"/>
<path d="M615.037 166.97V61.0218L569.7 34.8304L478.315 87.5678V166.911H476.896V86.7992C507.812 69.0033 538.726 51.1482 569.641 33.2341C585.187 42.2208 600.792 51.2075 616.338 60.194V166.911H615.037V166.97Z" fill="#F2F3F4"/>
<path d="M661.084 246.667L661.143 193.811L615.746 167.738L570.409 193.929V246.312L616.456 272.799V485.818H615.037V273.567L568.99 247.081C568.99 229.108 568.99 211.134 568.99 193.102C584.595 184.115 600.141 175.129 615.688 166.142C631.292 175.069 646.838 184.056 662.443 193.042L662.385 246.726H661.084V246.667Z" fill="#F2F3F4"/>
<path d="M569.049 87.2129V34.0618H570.408V87.2129H569.049Z" fill="#F2F3F4"/>
<path d="M661.143 485.818V353.324L615.805 327.133L524.42 379.87V485.758H523.002V379.102C553.916 361.306 584.89 343.45 615.746 325.537L662.443 352.497V485.818H661.143Z" fill="#F2F3F4"/>
<path d="M753.12 485.817V87.6267L707.842 61.4354L616.103 114.409L615.393 113.168L707.783 59.8391L754.539 86.799V485.817H753.12Z" fill="#F2F3F4"/>
<path d="M799.521 -44.6896L708.491 7.87039V485.818H707.132V7.10179L799.521 -46.2859V-44.6896Z" fill="#F2F3F4"/>
<path d="M661.144 352.91V299.759H662.504V352.91H661.144Z" fill="#F2F3F4"/>
<path d="M753.118 87.2129V34.0618H754.537V87.2129H753.118Z" fill="#F2F3F4"/>
<path d="M200.791 299.877V246.666H202.209V299.877H200.791Z" fill="#F2F3F4"/>
<path d="M430.967 379.574V326.423H432.326V379.574H430.967Z" fill="#F2F3F4"/>
<path d="M615.038 220.121V166.969H616.457V220.121H615.038Z" fill="#F2F3F4"/>
<path d="M155.867 353.502L63.8325 406.712L63.1228 405.47L155.157 352.319L155.867 353.502Z" fill="#F2F3F4"/>
<path d="M385.276 378.983L431.323 352.437L431.973 353.62L385.984 380.165L385.276 378.983Z" fill="#F2F3F4"/>
<path d="M155.158 299.168L201.204 272.562L201.914 273.805L155.867 300.35L155.158 299.168Z" fill="#F2F3F4"/>
<path d="M293.891 114.409L201.855 167.561L201.146 166.378L293.181 113.168L293.891 114.409Z" fill="#F2F3F4"/>
<path d="M524.064 140.956L431.971 194.166L431.321 192.925L523.356 139.773L524.064 140.956Z" fill="#F2F3F4"/>
<path d="M569.405 219.53L615.392 192.924L616.102 194.166L570.054 220.712L569.405 219.53Z" fill="#F2F3F4"/>
<path d="M616.16 353.502L524.066 406.653L523.416 405.47L615.45 352.319L616.16 353.502Z" fill="#F2F3F4"/>
<path d="M708.137 87.8041L616.102 140.955L615.393 139.773L707.486 86.6216L708.137 87.8041Z" fill="#F2F3F4"/>
<path d="M799.521 -18.0844L708.137 34.653L707.487 33.4705L799.521 -19.6807V-18.0844Z" fill="#F2F3F4"/>
<path d="M570.053 61.2582L478.018 114.409L477.308 113.168L569.403 60.0166L570.053 61.2582Z" fill="#F2F3F4"/>
</g>
</svg>
