<svg width="42" height="43" viewBox="0 0 42 43" fill="none" xmlns="http://www.w3.org/2000/svg">
<path d="M2.25 23.9998L6.41667 20.6665M6.41667 20.6665L7.11111 20.111L16.3148 12.748C18.3031 11.1574 19.2972 10.3621 20.4394 10.207C20.8114 10.1565 21.1886 10.1565 21.5606 10.207C22.7028 10.3621 23.6969 11.1574 25.6852 12.748L34.8889 20.111L35.5833 20.6665M6.41667 20.6665V35.3019C6.41667 38.0346 8.63192 40.2498 11.3646 40.2498C14.0972 40.2498 16.3125 38.0346 16.3125 35.3019V33.0326C16.3125 30.4437 18.4112 28.3451 21 28.3451C23.5888 28.3451 25.6875 30.4437 25.6875 33.0326V35.3019C25.6875 38.0346 27.9028 40.2498 30.6354 40.2498C33.3681 40.2498 35.5833 38.0346 35.5833 35.3019V20.6665M39.75 23.9998L35.5833 20.6665M2.25 16.7082L16.3148 5.45633C18.3031 3.86571 19.2972 3.0704 20.4394 2.91532C20.8114 2.86481 21.1886 2.86481 21.5606 2.91532C22.7028 3.0704 23.6969 3.86571 25.6852 5.45633L39.75 16.7082" stroke="#FD3600" stroke-width="3.125" stroke-linecap="round" stroke-linejoin="round"/>
</svg>
