<svg width="40" height="43" viewBox="0 0 40 43" fill="none" xmlns="http://www.w3.org/2000/svg">
<path d="M2.1948 18.9942C1.63324 15.2879 1.35246 13.4347 1.81979 12.756C2.28667 12.0779 3.10908 11.7383 3.91835 11.8895C4.72842 12.0409 5.83681 13.5523 8.05359 16.5752C9.18391 18.1165 9.74907 18.8872 10.3725 19.098C10.9998 19.3102 11.6907 19.2114 12.2335 18.832C12.7729 18.4549 13.0995 17.5568 13.7527 15.7605L16.4745 8.27544C17.7712 4.70962 18.4195 2.92672 19.4947 2.65859C19.8257 2.57604 20.1719 2.57604 20.5029 2.65859C21.578 2.92672 22.2263 4.70962 23.523 8.27543L26.2448 15.7605C26.898 17.5568 27.2247 18.4549 27.764 18.832C28.3068 19.2114 28.9977 19.3102 29.6251 19.098C30.2485 18.8872 30.8136 18.1165 31.944 16.5752C34.1607 13.5523 35.2691 12.0409 36.0792 11.8895C36.8885 11.7383 37.7109 12.0779 38.1778 12.756C38.6451 13.4347 38.3643 15.2879 37.8028 18.9942L35.5482 33.874C35.1405 36.5652 34.9366 37.9108 34.1357 38.8266C33.8756 39.1242 33.5744 39.3831 33.2412 39.5958C32.2158 40.2504 30.8548 40.2504 28.1329 40.2504H11.8647C9.14274 40.2504 7.78177 40.2504 6.75632 39.5958C6.42318 39.3831 6.122 39.1242 5.86183 38.8266C5.06096 37.9108 4.85708 36.5652 4.44932 33.874L2.1948 18.9942Z" stroke="#FD3600" stroke-width="3.125" stroke-linejoin="round"/>
<path d="M15.832 28.7921C15.832 26.4909 17.6975 24.6255 19.9987 24.6255C22.2999 24.6255 24.1653 26.4909 24.1653 28.7921C24.1653 31.0933 22.2999 32.9588 19.9987 32.9588C17.6975 32.9588 15.832 31.0933 15.832 28.7921Z" stroke="#FD3600" stroke-width="3.125" stroke-linejoin="round"/>
</svg>
