<svg width="22" height="23" viewBox="0 0 22 23" fill="none" xmlns="http://www.w3.org/2000/svg">
<g clip-path="url(#clip0_27_271)">
<path d="M4.88889 1.5H1L17.1111 21.5H21L4.88889 1.5Z" stroke="white" stroke-width="1.5" stroke-linecap="round" stroke-linejoin="round"/>
<path d="M0.671781 20.0607C0.183625 20.5488 0.183625 21.3403 0.671781 21.8284C1.15994 22.3166 1.95139 22.3166 2.43955 21.8284L0.671781 20.0607ZM21.3284 2.93955C21.8166 2.45139 21.8166 1.65994 21.3284 1.17178C20.8403 0.683625 20.0488 0.683625 19.5607 1.17178L21.3284 2.93955ZM2.43955 21.8284L10.7729 13.4951L9.00511 11.7273L0.671781 20.0607L2.43955 21.8284ZM12.9951 11.2729L21.3284 2.93955L19.5607 1.17178L11.2273 9.50511L12.9951 11.2729Z" fill="white"/>
</g>
<defs>
<clipPath id="clip0_27_271">
<rect width="22" height="23" fill="white"/>
</clipPath>
</defs>
</svg>
